<svg version="1.1" xmlns="http://www.w3.org/2000/svg" viewBox="0 0 793 517" style="overflow:visible">
<path id="karakalpakstan" data-title="Qoraqalpog'iston Respublikasi" fill="#a1b9db" stroke="white" stroke-width="0.8" d="M119.1 0.3L118.9 3.8L117.3 7L117.1 11.8L113.3 15.2L111.3 18.4L111.1 24.2L108.5 26.8L107.3 32.4L104.3 37.2L102.3 42.6L101.9 47.2L102.1 53.2L103.3 56L105.3 59.6L104.9 62.2L101.9 70.7L102.3 75.9L104.5 81.1L106.7 83.7L109.7 85.1L113.7 86.7L116.7 86.9L119.3 88.9L121.3 89.5L122.3 87.5L123.9 87.1L126.3 87.3L128.1 86.5L133.1 84.9L135.7 83.7L137.3 84.7L138.1 88.3L136.3 90.5L133.5 92.3L134.5 95.9L136.7 96.9L138.5 98.7L143.7 99.5L146.3 101.7L149.3 102.1L155.3 102.7L159.7 102.9L163.3 100.7L165.7 102.1L166.9 103.1L170.7 102.3L172.7 101.7L176.3 102.9L181.3 101.9L186.1 100.3L193.2 97.5L193.8 94.9H197.2L198.4 93.1L197.4 91.3L199 87.9L205.2 82.9L209.8 78.3L212.6 73.3L213.4 69.5L212.4 68.1L210.8 66.7L209.8 64.7L213.7 64.4L235.4 80.1L237.6 87.2L243.7 93.3L250.1 101L253.5 105.2L259.2 112.2L276 133.1L278.1 134.8L284 145.3L299.4 149.5L271.7 201.7L270.4 217.5L277.1 229.6L264.2 236.7L285.1 265.4L298.9 284.6L288 289.7L280 283.1L270.5 271.5L263.9 267.7L255 265.6H252V266L249.8 267.7L248.6 270L247.4 272.7H245.9L242.9 269.2L239.5 266L230 260.5L221.8 253.2L216.8 247.8L211.6 243L206.7 236.2L206.3 233.7V231.1L200.4 228.9L196.1 230.3L194.2 231.1L191.5 236.3L187.8 234L185.2 231.3V231L182.8 230L183.4 228.5L186.2 228.3L186.4 227.1L185.1 222.2L183.8 220.6V219.9L185.1 218.8L187.3 218.6L187.1 216.4L185.6 215.2L183.8 215L181.6 213L178.3 210.4L176.5 211.6L176.1 212H175.6L173.8 211.4L172.1 210.8H170.1L168.5 211.2H167L158.3 211.5L157 209.7L155.5 208.3L151.5 204.3V203.9L151.9 201.5L148.5 197.1L145.4 196.1L144.4 196.9L141.2 196.9L136.6 195.1L134.2 193.3L130 188.7L125.2 183.3L122.1 179.4L121.6 179V179.9L122.3 182.6V182.9L119.7 183.9V184.1L120.7 185.1L120.3 187.3L119.5 188.1L118.3 187.7L113.2 187.7L109.3 186.5L106.4 185.9H105.5L103.1 187.1L100.8 189L99.9 191L104.2 193.7L106.9 194.9L109.6 201.1L111.7 204.8V206L115.8 208.3L116.9 209.8L116 211.1H115.6L111.6 211L111.5 208.3L109 202L102.9 199.9L102.1 200L98.6 201.6L97 199L94.9 196.8L93.5 197.1L91.3 199.9L91 200.7L88.9 199.8L88.4 201.8L89.6 203.4L90.3 205.2V205.7L89.9 206.8V208.2L89.8 210.9L88.6 213.7H87.8L85.4 213.6L85.1 214.8L85.8 216L86.2 217.1L85.1 217.6L82 217.1L79.4 218L77 219H76.4L72.9 217.6L65.4 217.7L60.9 219.6L58.7 221.2L56.3 223.9L54.1 229.7L52.4 231.7L50.3 232.6L48.1 233.2L45.6 236.3L45.3 238.3L44.8 240.1V242.9L45 248.3L45.6 250.7L47.3 253.6L47.6 255.5L47.4 256.7V259L47.8 262.1L48.5 263.8L50.3 266.4H51.2L53.6 266.2V266.7L52.4 268.1L49.1 270.5V272L47.8 273.5H46.5L40.7 272.8L36.5 272.2L29.7 271.8L20 271L14.6 270.7H9.4L0 269.8L0.3 37.7L1.8 37.3L33.3 26.8V26.7L36.3 25.7L49.4 21.5L93.2 8.1L102.1 5.4L119.1 0.3Z"/>
<path id="xorazm" data-title="Xorazm viloyati" fill="#a1b9db" stroke="white" stroke-width="0.8" d="M282.5 312.3L280 308L279.5 304.4L277.5 300.7L277.4 299.5L277.6 298.3L277.1 292.9L276.6 290.7L275.4 287.7L272.5 285.9L271.8 283.1L268.7 280.4L264.1 276.7L261.1 275.3L259.5 273H259L255.9 273.5L253.6 272.4L251.8 272.1H251.3L250 273.9L250.1 276.5L249 279.8L247 280.7L244.9 280.9H243.6L239.3 279.2L237.2 277L234.9 277.1L228.7 275.3L225.1 275.7L220.8 275.9H216.9L212.1 276.2H211.2L207 276.3L203.8 274.4L200.9 271.8L194.8 267.6L191.4 265.7L189.6 263.5V262.8L190.5 256.3L192.6 254.3L192.9 253.7V252.5L191.5 249.6L188.5 245.2L188.6 242.5L193.6 241.3L196 242.9H197.2L198.8 243.8L198.5 241.2L196 239.3L192.2 237.1L194.6 231.2L200.8 228.9L206.1 230L206.7 231.1V233.7L210.2 241.5L212 242.9L217.2 247.7L220.6 251.6L230.4 260.4L236.4 264.9L240 265.9L243.4 269.1L246.4 272.6H247.9L249.1 269.9L252.5 265.9L256.1 265.7H259L265 267.8L271.6 271.6L279.6 280.4L285.7 290.6L289.1 289.8L292.3 293.1L298.2 299.8L298.9 300.9V302.4L298.1 306.2L293.5 311.3L287.2 318.9L282.5 312.3Z"/>
<path id="navoiy" data-title="Navoiy viloyati" fill="#a1b9db" stroke="white" stroke-width="0.8" d="M498.4 275L497.9 279.8H497.7L497.4 282.7L490.7 282.9L491.8 293.5L493.5 295.4L499.9 304L496.5 310L491.4 320.4L490 317L486.5 312.9L484.4 314.8L482 316.1L480.6 316.2L476.8 313.6L474.5 313.7L471.5 319.5L471.9 328L471 334.1L470.1 335.4L467.8 341.5L468.8 342.6L470.2 341.7L471.2 342.3L471.1 343.4L467.2 347.3L465.6 348.1L456.7 350L450.1 347.5L446.5 343.9L441 341.8L439 343V344L438.6 349.8L436.8 355.3L435.6 356.9H435L431.1 355.5L422.5 358.4L422.2 360L423.7 361.5L427 369L426.3 371.5L425.1 373.8V374.4L428.2 380.8L424.7 381.8L422.5 382.6L421.3 383.4L421 380L416.2 369.5L411.3 365.8L408.1 366.6L399.9 363.8L394.4 356.9L396.2 353.8L401.1 351.2L405.7 343.9L407 338.2L407.5 333.8L408.6 329.4L412.7 330.8L415.5 332.6L422.3 333.3L423.8 332.3L428.7 324.1L432.9 320.3L434.3 311L420.4 309.3L411.8 308.1L408.9 306.3L406.8 296.2L405 293.2L403.8 295.5L400.4 298.6L391.6 299.3L390.2 304L373.8 302.6L373.7 295L372 293.1L368.9 294.2L367.9 295.3L362.5 307.5L359.4 307.9L356 308L355.6 303.3L343.7 295.9L329.8 289L324.1 288H326.1L322.5 286.7L319 277.2L313.9 273.7L308 267.8L303.7 261.2L290.2 264.4L285.9 265.6L265 236.9L277.9 229.8L271.2 217.7L272.5 201.9L300.2 149.7L278.9 135L321.3 126.7L341.8 123.1L358 125.3L363.9 125.7L380.5 127.2L394.1 127.9L405.7 122.5L419.2 116.7L423.6 117.6L430.3 131.3L435.9 136.9L446.8 146.6L448.3 152.7L454.9 174.1L467.5 168.2L467.9 199.5V206.7L464.9 205.3H464.6L464.5 211.9L463.3 229.6L463.4 231.7L487.5 234.6L491 274.3L498.4 275Z"/>
<path id="buxoro" data-title="Buxoro viloyati" fill="#a1b9db" stroke="white" stroke-width="0.8" d="M421.3 383.4L414.1 389.2L409.1 394L411 400.3L392.9 406.9L387.3 413.1L385.2 410.8H384.8L381.5 412.3L378.1 412.4L374.2 409.6L364.5 402.4L358 397.8L354.1 392.9L350.5 389.4L344.5 384.5L335.6 378.8L321.1 368.7L314.1 363.9L299.8 353.4L297.7 351L297 346.6L295.6 344.5V343.9L296.3 342.7L296 339.1L295.3 335.9L295 334V333.4L294.6 330.2L292.7 328.1L293.1 326.1L290.8 323L286.9 320L286.5 319.4L292.8 311.8L298.2 302.9V301.4L291.6 293.6L288.4 290.3L299.3 285.2L285.5 266L289.8 264.8L307.6 268.2L311.1 272.6L313.5 274.1L317 276L320.7 282L322.1 287.1L323.6 288.4L329.3 288.9L343.2 295.8L355.1 303.2L355.5 307.9L361.5 307.6L367.4 295.2L371.5 293L373.3 302.5L389.5 304.4L396.1 298.6L402.2 298.1L404 293.3L406.3 296.1L408.4 306.2L411.3 308L425.8 309.8L433.8 310.9L432.4 320.2L428.4 323L423.3 332.2L421.8 333.2L415 332.5L410.2 329.4L407 329.8L407 333.7L405.2 343.8L400.6 351.1L393.9 356.8L398.2 362.6L406.5 366.4L410.8 365.7L415.7 369.4L420.1 378.8L421.3 383.4Z"/>
<path id="samarqand" data-title="Samarqand viloyati" fill="#a1b9db" stroke="white" stroke-width="0.8" d="M532.9 390.8L531.2 390.8L526.9 392.1L524 392.5L517.6 390.2L513.1 388.9H512.2L511.9 391.2L510.6 392.3L506.7 392.5L503.5 390.8L504 389.1L503.6 386.5L494.4 384.3L492.4 384.7L490.5 387.5L486 390H485.7L483.4 388.6L480.6 386.4L472.5 388.1L469.2 389.8L467 391.2H465.5L462.4 390.4L461.4 388.4L458.6 383.8L455.3 380L451 379.1V379.4L449.4 380.8L446.6 381.5L429.1 381L426 377L425 374.4V373.8L426.9 369L425.5 363.8L422.1 360L422.4 358.4L431 355.5L432 356L436 356.6L438.5 349.8L439 343V343L441 341.6L447.5 345.2L450.1 347.3L455.5 349.6L465.6 347.9L470.7 343.8L471.2 342.1L470.2 341.5L468.8 342.4L467.8 341.3L470.1 335.2L471.9 327.8L471.5 319.3L473.6 314.6L476.8 313.4L477.8 314.9L480.6 316L484.4 314.6L486.5 312.7L490 316.8L491.3 320.3L503.7 321.3L504.7 323.5V324.6L503.8 327.2L504.7 335.2L506.6 336.9L508 339.7L506 342.3L506.3 346.4L512.1 350.3L519 351.5L530.9 354L532.2 360.2L531 361.3L527.3 362.7L522.6 369.3L522.5 369.7V373.9L523.4 375.9L524.4 376.9L528.9 380.7L531.9 387.7L533 390.5L532.9 390.8Z"/>
<path id="qashqadaryo" data-title="Qashqadaryo viloyati" fill="#a1b9db" stroke="white" stroke-width="0.8" d="M421.3 383.4L422.5 382.6L427.3 381.4L428.9 381L446.4 381.5L449.2 380.8L450.8 379.4V379.1L455.1 380L458.4 383.8L461.2 388.4L462.2 390.4L465.3 391.2H466.8L469 389.8L479.8 386.2L481.6 387.2L484.8 389.7H485.8L489.4 388.4L491.3 385.6L492.9 384.3L502.7 385.7L503.8 387.7L503.7 389L503.5 390.8L504.5 392.3L510.3 392.2L511.5 391.5L511.5 389.3L511.9 388.8H512.8L519.9 391.2L525.4 392.7L526.8 394.1L529.9 397.8L531.7 398.2L533.1 398.9H533.9L536 398.9L537.7 401.1L540.2 401.7V402.3L539.7 405.3L540.6 409.2L540 410L535 410.8L532.9 412L532.3 413.2L533.8 418.4L534.5 423.6L533.2 427.9L531.3 426.3L528.9 425.9L526.7 427.1L524.7 430.6L515.8 439.5L514.9 444.4L514 446.7L511.6 449.1L509.8 450.4L506.3 452.3L494.7 464.4L493.3 470L491.2 468.1L488.7 466.8L485.5 466.4L482.9 467.2L479.8 465.9L477 464.3L473.9 459.9L471.5 459.5L468 458.5L465.7 456.7L464 455.8L461.3 455.4L458.5 452.8L457.6 452.6H456.5L454.8 454.3L453.9 454.9H453L448.3 454.1L438.4 450.2L430 445L425.4 441L417.8 433.4L411 430.4L406.4 427.7L397 421.5L394.3 419.6L388.8 414.5L387.6 413.2L393.2 407L411.3 400.4L409.8 397.2L409 395.1L413.8 389.4L417.8 387.1L421.3 383.4Z"/>
<path id="surxondaryo" data-title="Surxondaryo viloyati" fill="#a1b9db" stroke="white" stroke-width="0.8" d="M573.3 459.5L572.3 463L569.9 466.6L568.3 469.7L567.9 472.4L565.2 475.3L561.2 476L557.2 484.2L554.6 486.9L552.3 489.9L550 494.7L548.4 496.2L547.2 500.1V502.7L546.9 513.4L545.5 516.2L543.4 513.9L540 513L537 513L535.2 514.1L534.8 513.4L533.7 511.3L531.6 511.4L529.7 513.1L527.2 514.3L523.1 515.9L521.6 516.5L520 514L518.9 513.1L517.2 511.5L514 510.3L513.9 508.1L511.9 506.4L508.2 504L502.7 505.7L498.1 506.4L494 506.3L492.4 505.9L487.9 506.1L486.2 504.6L487.7 502.7L491.8 501.2L492.1 500.5V499.7L487.1 493.1L487.4 486L487.6 480.8L489.8 477.1L493.2 473.8L493.8 472.6V471.7L493 469.8L494 465.5L506 452.1L511.3 448.9L513.7 446.5L514.6 444.2L515.5 439.3L524.4 430.4L526.4 426.9L527.5 426L530 425.8L532.4 427.5L534.2 423.4L534.1 419.2L532.5 416.1L532 413L532.6 411.8L534.7 410.6L538.7 410.4L540.5 409L541.6 409.8L542.5 409.5L544.1 409L546.1 408.8L548.9 409.7L549.9 408.3L552.9 407.7H553.4L555.5 409.2L557.3 408.2L559.8 409.1L561 411.9L563.7 414L563.7 418.4L562.4 419L560.8 420.2L558.3 420.6L558 421.2L560.5 424.9L558.5 425.8L557.2 427L557.6 428.5L558 431.5L557.7 436.8L560.1 440L560.7 441.9L559.5 444.4H560L563.7 444.7L565.1 447.1L565.6 449.5L568.4 450.7L571.4 453.9V454.3L572.1 455.6L573.2 457.1V457.9L573.3 459.5Z"/>
<path id="jizzax" data-title="Jizzax viloyati" fill="#a1b9db" stroke="white" stroke-width="0.8" d="M580.6 374.7L578.8 378.2L576.5 378.1L573.5 377.6L570.4 377.5L566.7 376.8L563.8 377.1L559.9 376.4L557.1 375.8L555.4 374.8L553.1 374.3L549.3 372.7L545.5 371L543.6 371.7L540.4 371.9L537.8 374.3L537.2 374.5H535.8L531.8 376L531.5 378.8L529.3 378.3L528.5 379.2V380.5L524.3 377.2L522.4 374.2V370L525.7 364.4L527.2 363L530.9 361.6L532.1 360.5L531 354.5L518.9 351.8L514.1 351.4L512 350.6L506.2 346.7L505.8 343L507.8 340.8L506.5 337.2L504.6 335.5L503.7 327.5L503.6 321.6L499 321.5L491.2 320.6L496.3 310.2L499.7 304.2L498.1 297.3L493.3 295.6L490.5 283.1L497.2 282.9L497.5 280H497.7L498.2 275.2L515.6 276.5L522.9 277L527.2 277.1L542.6 277.6L544.9 279.1L550.2 284.7L552.5 284.6L555.5 282.6L558.3 284.1L554.4 286.1L555.8 289.6L554.4 296.3L549.6 298.7L553.4 301.4L562.8 308.8L567 310.5L566.5 313.9L562.5 314.3L562 319.2L564.6 319.4L558.8 332.4L558.8 334.9L566.6 337.1L575.2 336.1L584.6 333.7L584.9 334.4L583.9 340.8L579.4 342L580.1 343.4L586.1 344.4L590.3 343L596.6 341.4L599.8 341.3L600.6 341.9L601 343.2L601.5 345.6L595.7 346.4L594.5 347.3L593.6 348.1L592.6 345.7L591.3 345.8L592.3 348.1V348.7L591.9 350.1V350.4L593.4 351.8L596 355L596.5 356.1V356.9L594.2 358.1L593.5 355.4L591.5 351.3L590.5 351.8L591.6 354.9L592 358.3L590.7 358.8L589.4 360.9L588.5 359.2L585.7 359.4L584 359L584.2 361.8L583.1 364.9L582.2 365.8H581.6L581.5 366.9L583.4 369.6L583.1 371.3L580.7 374L580.6 374.7Z"/>
<path id="sirdaryo" data-title="Sirdaryo viloyati" fill="#a1b9db" stroke="white" stroke-width="0.8" d="M596.1 337.8L594.5 338.8L590.8 338.4L584.4 340.5L585.4 334.1L585.1 333.4L578 335L571.7 336.6L567.1 336.8L560.6 336.5H560.3L559.3 334.6L559.3 332.1L564.3 321.1L565.3 318.3L562.7 319.2L563 314L565.1 313.5L567.5 310.2L571.2 313.3L575 314.4L579.4 316.9L580.2 315.8L582.6 316L586.9 314.3L586.1 312.2L579.3 303.1L580.2 295.6L579.2 290.8L575.6 290.6V289.3L580.8 290.2L583.2 288.7V288.9L584.4 290.5L585.2 290.1L586.4 291L584.8 291.9V292.5L585.7 293.3L590.6 298.8L594.1 302.3L603.7 310.6L604.3 310.7L607.3 314.9L606.8 319.6L604.9 329.9V331L605.5 332.6L605.2 337.3L604.1 336.9H601.5L598.1 337.3L596.1 337.8Z"/>
<path id="toshkent-shahri" data-title="Toshkent shahri" fill="#a1b9db" stroke="white" stroke-width="1.5" d="M618.9 266.8V266.2L618.3 266.4L617.4 267L616 267.7L615.1 268.1L613 267.3H612.8L611.7 268L610.7 267.8L609.3 268.9L609.2 269.8L608.5 273.5L609.5 274L610.9 275.1H611.1L612.4 275.3L613 275.2V274.7L614.1 273.8L615.9 274.1L615.7 274.5L616.5 275.7L617.1 275.6L618.5 273.7L618.4 272.5L618 271.8L618.2 270.7L618.4 270.1V269.6L618.9 268.8H619.3L619.2 268.1L619.5 267.8L619.3 266.9L618.9 266.8Z"/>
<path id="toshkent-viloyati" data-title="Toshkent viloyati" fill="#a1b9db" stroke="white" stroke-width="0.8" d="M705.7 216.1L704 214.8L700.7 211.8L698 211.1L694.3 211.1L693 212.3H692.3L689.2 214.2L686 216.2H685.3L683.1 216L681.6 218.1L679.3 220.5L678.3 222.9L676.3 227.7V227.9L675.4 228.7H675L672.8 226.8L669.9 222.9L667.2 220.5L665.7 220.9L665.4 223L663.9 225L662.3 226L662.4 229.1L660.3 231.2L658.1 232.4L656.1 234.6L655 237.4L651.2 240L649.2 243.1L647.2 241.7L644.5 246.2L641.6 247.4L637.5 247.2L634.4 247.5L633.4 248.6L630 249.5L628.3 250.8L627 252L625.7 253.4L624.8 255.5L622.7 256.5L620.3 257.9L619.6 259V259.5L621.1 260.8L618.2 261.6H616.9L614.1 261.6L610.5 261.8L609.3 262.5L608.7 264.4L606.1 266.2L605 269L603.2 268.8L600.4 272L600.2 274.7L598.6 276.3L596.6 278.6L594.5 280.9L591.8 285.1L589.4 288.9L587.7 292L584.9 293.6L589.8 299.1L598.2 307L603.5 311L606.5 315.2L606 319.9L604.1 330.2V331.3L604.7 333L604.4 337.7L606.9 337.9H607.5L609.6 338.2L610.4 337.9L611.7 338.2H613.7L614.8 338.8L614.5 336.3L612.7 335.6L612.5 334.3L614.2 333.3L615 333.2L616.1 332.1V331.2L615.4 328.7L614.3 326.2L614.5 325.3L613.4 323L612.6 319.9L611.3 318L613.1 316.1L614.9 315.9L616.8 314.7L617.6 313.2L617 312L616.9 307.4L619.3 303.1L620.9 302.9L624.1 303.9L626.9 306.4L627.2 307.6L629 309.3L631.3 311.8L633.9 312.2L634.8 311.6L636.2 308.6L637.4 308L639.1 307.4L641.1 306.7H641.5L643.1 307.7H643.3L644.5 306.6L647.3 305.8L649.2 304.5L653 301.6L654.1 299.7L655.7 300L658.3 299.3L661.5 296.9H662.7L663.8 296.3L664 294L664.9 292.5V291.7L665.8 288.2L667.6 287.1L668.6 287.4L665.8 278.1L665.1 270.8L668.1 266.7L668.3 263.8L665.8 261.1L664 259L662.3 258.1L659.7 258.3L655.8 254.3L657.8 252.5L661.5 251L663.6 250.7L666 248.1L670.3 245.7L671.1 242.2L673.1 240.5L675.6 237.8L677.8 235.1L680 233.4L681.6 233.6H682L682.6 232.4L684.3 233.3H685.2L686.5 232.3L687 230L686.4 227.5L687.4 225.8L688.8 225.5L690.7 226.5L691.5 226.7H692.3L694.6 225.1L697.1 223L700.6 220.1L703.8 220L704.2 219.4L705.6 218.4L705.7 216.8V216.1Z"/>
<path id="namangan" data-title="Namangan viloyati" fill="#a1b9db" stroke="white" stroke-width="0.8" d="M749.3 281.1L748.3 280L745.5 279L743.6 281.1L740.9 279.8L737.4 280.2L734.7 279.4L734.4 279V278.1L733.3 277.6L733.9 275.6L734.8 274L736.1 272.4L736.7 271V270.7L734.5 268.5L734.1 266.5L733.4 267.3L732.6 267.5L732.5 265.8L730.5 263.3L729.1 261L728.9 262.8L728.1 262.1L726.8 262.3L727.1 263.4L727 264L725.9 263.2L726.7 261.2L727.3 259.9L727.1 258.5L727.5 256.6L727.2 256L724.9 256.7L724.1 258.1L722.4 259L722.5 260L723.6 260.1L724.7 261.1L724.8 261.8L724.1 263.8V264.2L724.9 265.4L723.9 266.8L723.2 268.5H723L722 269.2L721.4 269.7L720.7 271.3L719.1 270.7L717.4 270.9L715.9 270.5L714.2 272.3V272.7L715.3 275.7L714.7 278.4L714.4 280.4L712.7 283.5H712.2L711.5 281.2L710.5 279.9L709.1 280L708.6 281.8L707.4 283.4L706.5 283.4L706.6 280.7L706 278.9L704.1 278.6L703.7 279.7L703 278.5H702.7L701.9 279.5H701.1L700.3 280.5L698.2 280.4L696.4 278.8L691.9 279.8L690.8 278.4L689.9 277.5L688.4 276.1L686.4 276.6L685.3 279.1L684.2 274.3L683.6 273.4L683.2 270.9L683.4 266.8L680.9 262.7L679.1 261H678.8L677.7 261.9L675 262.3L673.6 263.8L669.3 264.7L668.6 266.6L665.6 270.7L666.3 278L668.9 281.9L669.1 284.2V286L669.1 287.3H669.6L670.6 288.4L671.8 289.9L673.7 291.3L674.2 292.7L675.2 294L676.7 296.5L677.2 297.7H677.5L678.6 298.9L680 300.6L681.2 302.1L680.5 302.4L679.1 303L678.2 303V303.7L679.3 304.1L681 304.9H681.9L683.3 306L683.8 306.4L684.1 306.1L689 304.8L692.4 304.2L699.2 304.1V304.3L697.4 306.5L698.2 308.5L705.7 313.1L706.9 312.8L709.9 309.9L711.5 307.4L716.8 304.4L720.2 303.4L722.1 302.2L719.9 299.5L721.9 297.6L723.1 296.8L731.7 294.6H735.4L736.7 295.5L740 296.3L741.5 296.4L746.4 296L747.3 295.2L748.6 289.3L748.2 289L747.9 288.1L749.2 287.8L749.7 287.4L749.3 281.1Z"/>
<path id="fargona" data-title="Farg'ona viloyati" fill="#a1b9db" stroke="white" stroke-width="0.8" d="M751.3 320.4L751.2 316.8L746.9 314.7L744.4 314.4H744.1L734.8 312.8L732 308.7L729 307.1L724.8 306.5L724.6 308L721.6 303.5L723.5 302.3L721.3 299.6L723.3 297.7L724.5 296.9L733.1 294.7H736.8L737.4 295L741.4 296.3L747.8 296L750 289.3L750.9 289.4H750.9L753.7 288L755.7 286.9L756.8 285.7L757.5 285.6L759 286.2L760 286.9H760.9L762.6 287.2L763.4 287.4L764.4 288.9L763.5 291V291.2L764.4 290.7H764.6H764.8L765.7 291.3L767 293.6L767.8 296.3L768.6 296.8L772.7 298.4L773.2 298.2L775 298.5L776.8 297.9L779.7 297.5H780.4L782.7 299.7L783.3 300.8L785.2 300.7L786 300.1L786.4 299.6H787L787.1 298.9L786.5 298.5L786.6 296.6L788.2 297.9L790.2 298.9L791.2 298.4L792.7 298.5L793.1 298.9L792.9 301.6L792 302.5L789.1 303.7L786.8 304.8L784.2 306.4L782.5 307L781.2 307.7L778.7 309.2L776.6 310.3L776.3 311.7L776.4 314.8L775.1 315.8L774.1 314.8L772.6 314.5L771.4 316.3L771.1 317.9L770.5 319L768 318.1L766.5 318L764.9 316.7L763.7 316.8H763.5L762.1 315.1L760.2 312.9L758.8 313.1H757.7L757.5 313.9L758.6 314.3L759.4 315.6L760.4 315.9L760.5 317.4L759.5 317.5L759 318.2L760.2 318.6L760.7 320.5L761.2 321L761.4 321.8L760.3 324.5L760.6 325.3L758.5 325.8L756.5 323.9L755.5 323.3L754.7 323.6L753.9 322.7H752.7L752.5 320.9L752.4 320.6L751.9 320.3L751.3 320.4Z"/>
<path id="andijon" data-title="Andijon viloyati" fill="#a1b9db" stroke="white" stroke-width="0.8" d="M673.8 332.4L673.9 331.7L673 330.5L668.5 328.9H667L666.1 328.9H665.7L664.9 328.3L664.1 326.9L663.6 326.1L662.7 324.3L663.5 323.3L664.5 322.5L665.7 322.3L666.8 321.7L668.8 321H669.6L670.1 320.6L670.2 319.8L670.6 319.4L671.3 317.9L671.9 317.8L672.7 317.9L673.2 317.5H673.9L674.3 317.3L675.2 316.2L676.7 313.6L677.4 313.4L678.6 312.5L679.6 311.6L680.6 311.4L681 311.7H681.3V311L681.4 309.8L681.7 310.1H682.4L682.8 309.5L683.1 308.5L683.7 308L684.1 307.6L684.4 307.3L689.3 306L692.7 305.4L699.5 305.3V305.5L697.7 307.7L698.5 309.7L700.4 311.6L706 314.3L707.2 314L710.2 311.1L711 310.1L711.7 308.6L712.9 307.8L717 305.6L720.4 304.6L723.4 309.1L723.6 307.6L727.8 308.2L730.8 309.8L733.6 313.9L742.9 315.5H743.2L745.7 315.8L749.7 317.1L750 317.9L750.1 321.5H749.6L748.1 321.3L747.6 322.7L746.7 323.8L745.2 323.9L744.3 323.3L743.8 324.3L744.3 326L743.5 327.6L741.8 328.4L739.5 331.2L738.3 331.7L737.4 332.6L737.5 333.4L738.5 333.6L739.4 335L738.3 336L737.5 337.4L736.2 337.7H736.2L734.9 336.8L732.9 336.3L732.3 337.2V337.5L733 338.6V339.1L731.7 341.6L727.9 341.6L727 342.3L726.7 342.4L725.9 341.4L724.9 340.4L724.9 338.1L724 336.4L722.7 335.9L721.5 336L721.4 336.8L721.6 338.2L721.4 339.2L720.3 339H719.3L717.9 338.6L716.1 337.8L716.1 335.9L714.6 335L713.1 335L712.5 334.5L711.4 333.3L710.5 332.9L710 333.1L709.4 333.2L709 332.2L707.5 332.8L706.4 332.8L706.2 332.5V331.5L704.7 331.6L703.7 331.3L700.5 331.8H699.5L698.9 332L696.3 333.8L694.3 334.2L692.2 335.1L691.9 336.6L691.8 337.6L689.4 337.7L685.4 339.3L682.9 340.4L681.3 340.7L676.8 341.5L676 341.2L674.8 339.1L675 338L674.3 337.6L673.8 336.7L674 335.3L674.4 334.3L673.9 332.5L673.8 332.4Z"/>
</svg>
